REM DIRINDEX 1\2,1\3,1\4,1\5
REM DIRNAME folder01,folder02,folder03,folder04,folder05
TITLE ""
FILE "1800_169.mp3" MP3
  TRACK 01 AUDIO
    TITLE "2:cjc044_5613"
    INDEX 01 00:00:00
  TRACK 02 AUDIO
    TITLE "0:"
    INDEX 01 00:01:07
  TRACK 03 AUDIO
    TITLE "3:cjc044_5614"
    INDEX 01 00:01:54
  TRACK 04 AUDIO
    TITLE "0:"
    INDEX 01 00:03:25
  TRACK 05 AUDIO
    TITLE "4:cjc044_5615"
    INDEX 01 00:03:72
  TRACK 06 AUDIO
    TITLE "0:"
    INDEX 01 00:05:14
  TRACK 07 AUDIO
    TITLE "2:cjc044_5616"
    INDEX 01 00:06:67
  TRACK 08 AUDIO
    TITLE "0:"
    INDEX 01 00:07:70
  TRACK 09 AUDIO
    TITLE "3:cjc044_5617"
    INDEX 01 00:08:46
  TRACK 10 AUDIO
    TITLE "0:"
    INDEX 01 00:09:28
  TRACK 11 AUDIO
    TITLE "4:cjc044_5618"
    INDEX 01 00:10:00
  TRACK 12 AUDIO
    TITLE "0:"
    INDEX 01 00:11:01
  TRACK 13 AUDIO
    TITLE "2:cjc044_5619"
    INDEX 01 00:12:54
  TRACK 14 AUDIO
    TITLE "0:"
    INDEX 01 00:13:67
  TRACK 15 AUDIO
    TITLE "3:cjc044_5620"
    INDEX 01 00:14:43
  TRACK 16 AUDIO
    TITLE "0:"
    INDEX 01 00:15:34
  TRACK 17 AUDIO
    TITLE "4:cjc044_5621"
    INDEX 01 00:16:08
  TRACK 18 AUDIO
    TITLE "0:"
    INDEX 01 00:17:20
  TRACK 19 AUDIO
    TITLE "2:cjc044_5622"
    INDEX 01 00:18:72
  TRACK 20 AUDIO
    TITLE "0:"
    INDEX 01 00:20:26
  TRACK 21 AUDIO
    TITLE "3:cjc044_5623"
    INDEX 01 00:21:00
  TRACK 22 AUDIO
    TITLE "0:"
    INDEX 01 00:23:28
  TRACK 23 AUDIO
    TITLE "4:cjc044_5624"
    INDEX 01 00:24:00
  TRACK 24 AUDIO
    TITLE "0:"
    INDEX 01 00:25:25
  TRACK 25 AUDIO
    TITLE "2:cjc044_5625"
    INDEX 01 00:27:06
  TRACK 26 AUDIO
    TITLE "0:"
    INDEX 01 00:28:35
  TRACK 27 AUDIO
    TITLE "3:cjc044_5626"
    INDEX 01 00:29:07
  TRACK 28 AUDIO
    TITLE "0:"
    INDEX 01 00:30:12
  TRACK 29 AUDIO
    TITLE "4:cjc044_5627"
    INDEX 01 00:30:59
  TRACK 30 AUDIO
    TITLE "0:"
    INDEX 01 00:32:17
  TRACK 31 AUDIO
    TITLE "2:cjc044_5628"
    INDEX 01 00:33:64
  TRACK 32 AUDIO
    TITLE "0:"
    INDEX 01 00:34:67
  TRACK 33 AUDIO
    TITLE "3:cjc044_5629"
    INDEX 01 00:35:43
  TRACK 34 AUDIO
    TITLE "0:"
    INDEX 01 00:37:44
  TRACK 35 AUDIO
    TITLE "4:cjc044_5630"
    INDEX 01 00:38:16
  TRACK 36 AUDIO
    TITLE "0:"
    INDEX 01 00:39:19
  TRACK 37 AUDIO
    TITLE "2:cjc044_5631"
    INDEX 01 00:40:70
  TRACK 38 AUDIO
    TITLE "0:"
    INDEX 01 00:41:73
  TRACK 39 AUDIO
    TITLE "3:cjc044_5632"
    INDEX 01 00:42:49
  TRACK 40 AUDIO
    TITLE "0:"
    INDEX 01 00:43:50
  TRACK 41 AUDIO
    TITLE "4:cjc044_5633"
    INDEX 01 00:44:24
  TRACK 42 AUDIO
    TITLE "0:"
    INDEX 01 00:45:32
  TRACK 43 AUDIO
    TITLE "2:cjc044_5634"
    INDEX 01 00:47:05
  TRACK 44 AUDIO
    TITLE "0:"
    INDEX 01 00:48:38
  TRACK 45 AUDIO
    TITLE "3:cjc044_5635"
    INDEX 01 00:49:14
  TRACK 46 AUDIO
    TITLE "0:"
    INDEX 01 00:50:37
  TRACK 47 AUDIO
    TITLE "4:cjc044_5636"
    INDEX 01 00:51:11
  TRACK 48 AUDIO
    TITLE "0:"
    INDEX 01 00:52:47
  TRACK 49 AUDIO
    TITLE "2:cjc044_5637"
    INDEX 01 00:54:25
  TRACK 50 AUDIO
    TITLE "0:"
    INDEX 01 00:55:40
  TRACK 51 AUDIO
    TITLE "3:cjc044_5638"
    INDEX 01 00:56:16
  TRACK 52 AUDIO
    TITLE "0:"
    INDEX 01 00:57:13
  TRACK 53 AUDIO
    TITLE "4:cjc044_5639"
    INDEX 01 00:57:64
  TRACK 54 AUDIO
    TITLE "0:"
    INDEX 01 00:59:04
  TRACK 55 AUDIO
    TITLE "2:cjc044_5640"
    INDEX 01 01:00:55
  TRACK 56 AUDIO
    TITLE "0:"
    INDEX 01 01:02:38
  TRACK 57 AUDIO
    TITLE "3:cjc044_5641"
    INDEX 01 01:03:08
  TRACK 58 AUDIO
    TITLE "0:"
    INDEX 01 01:04:23
  TRACK 59 AUDIO
    TITLE "4:cjc044_5642"
    INDEX 01 01:04:72
  TRACK 60 AUDIO
    TITLE "0:"
    INDEX 01 01:06:53
  TRACK 61 AUDIO
    TITLE "2:cjc044_5643"
    INDEX 01 01:08:25
  TRACK 62 AUDIO
    TITLE "0:"
    INDEX 01 01:09:44
  TRACK 63 AUDIO
    TITLE "3:cjc044_5644"
    INDEX 01 01:10:16
  TRACK 64 AUDIO
    TITLE "0:"
    INDEX 01 01:11:31
  TRACK 65 AUDIO
    TITLE "4:cjc044_5645"
    INDEX 01 01:12:07
  TRACK 66 AUDIO
    TITLE "0:"
    INDEX 01 01:13:26
  TRACK 67 AUDIO
    TITLE "2:cjc044_5646"
    INDEX 01 01:14:72
  TRACK 68 AUDIO
    TITLE "0:"
    INDEX 01 01:16:26
  TRACK 69 AUDIO
    TITLE "3:cjc044_5647"
    INDEX 01 01:17:02
  TRACK 70 AUDIO
    TITLE "0:"
    INDEX 01 01:18:29
  TRACK 71 AUDIO
    TITLE "4:cjc044_5648"
    INDEX 01 01:19:01
  TRACK 72 AUDIO
    TITLE "0:"
    INDEX 01 01:20:34
  TRACK 73 AUDIO
    TITLE "2:cjc044_5649"
    INDEX 01 01:22:09
  TRACK 74 AUDIO
    TITLE "0:"
    INDEX 01 01:23:46
  TRACK 75 AUDIO
    TITLE "3:cjc044_5650"
    INDEX 01 01:24:18
  TRACK 76 AUDIO
    TITLE "0:"
    INDEX 01 01:25:47
  TRACK 77 AUDIO
    TITLE "4:cjc044_5651"
    INDEX 01 01:26:21
  TRACK 78 AUDIO
    TITLE "0:"
    INDEX 01 01:27:55
  TRACK 79 AUDIO
    TITLE "2:cjc044_5652"
    INDEX 01 01:29:29
  TRACK 80 AUDIO
    TITLE "0:"
    INDEX 01 01:30:58
  TRACK 81 AUDIO
    TITLE "3:cjc044_5653"
    INDEX 01 01:31:32
  TRACK 82 AUDIO
    TITLE "0:"
    INDEX 01 01:32:41
  TRACK 83 AUDIO
    TITLE "4:cjc044_5654"
    INDEX 01 01:33:13
  TRACK 84 AUDIO
    TITLE "0:"
    INDEX 01 01:34:46
  TRACK 85 AUDIO
    TITLE "2:cjc044_5655"
    INDEX 01 01:36:19
  TRACK 86 AUDIO
    TITLE "0:"
    INDEX 01 01:37:44
  TRACK 87 AUDIO
    TITLE "3:cjc044_5656"
    INDEX 01 01:38:16
  TRACK 88 AUDIO
    TITLE "0:"
    INDEX 01 01:40:05
  TRACK 89 AUDIO
    TITLE "4:cjc044_5657"
    INDEX 01 01:40:52
  TRACK 90 AUDIO
    TITLE "0:"
    INDEX 01 01:42:02
  TRACK 91 AUDIO
    TITLE "2:cjc044_5658"
    INDEX 01 01:43:51
  TRACK 92 AUDIO
    TITLE "0:"
    INDEX 01 01:44:73
  TRACK 93 AUDIO
    TITLE "3:cjc044_5659"
    INDEX 01 01:45:45
  TRACK 94 AUDIO
    TITLE "0:"
    INDEX 01 01:46:49
  TRACK 95 AUDIO
    TITLE "4:cjc044_5660"
    INDEX 01 01:47:23
  TRACK 96 AUDIO
    TITLE "0:"
    INDEX 01 01:48:46
  TRACK 97 AUDIO
    TITLE "2:cjc044_5661"
    INDEX 01 01:50:19
  TRACK 98 AUDIO
    TITLE "0:"
    INDEX 01 01:51:46
  TRACK 99 AUDIO
    TITLE "3:cjc044_5662"
    INDEX 01 01:52:22
  TRACK 100 AUDIO
    TITLE "0:"
    INDEX 01 01:53:21
  TRACK 101 AUDIO
    TITLE "4:cjc044_5663"
    INDEX 01 01:53:67
  TRACK 102 AUDIO
    TITLE "0:"
    INDEX 01 01:55:22
  TRACK 103 AUDIO
    TITLE "2:cjc044_5664"
    INDEX 01 01:56:71
  TRACK 104 AUDIO
    TITLE "0:"
    INDEX 01 01:58:13
  TRACK 105 AUDIO
    TITLE "3:cjc044_5665"
    INDEX 01 01:58:64
  TRACK 106 AUDIO
    TITLE "0:"
    INDEX 01 02:00:37
  TRACK 107 AUDIO
    TITLE "4:cjc044_5666"
    INDEX 01 02:01:09
  TRACK 108 AUDIO
    TITLE "0:"
    INDEX 01 02:02:26
